<?xml version="1.0" encoding="utf-8"?>
<!-- Svg Vector Icons : http://www.sfont.cn -->
<!DOCTYPE svg PUBLIC "-//W3C//DTD SVG 1.1//EN" "http://www.w3.org/Graphics/SVG/1.1/DTD/svg11.dtd">
<svg version="1.1" xmlns="http://www.w3.org/2000/svg" xmlns:xlink="http://www.w3.org/1999/xlink" x="0px" y="0px" viewBox="0 0 1000 1000" enable-background="new 0 0 1000 1000" xml:space="preserve">
<metadata> Svg Vector Icons : http://www.sfont.cn </metadata>
<g><path d="M10,60.8L10,60.8L10,60.8L10,60.8z M365.1,130.7c16.4,0,30.4,5.7,42.1,17c11.7,11.3,17.5,25.3,17.5,41.6v236.7c0,16.4-5.8,30.4-17.5,42.1c-11.7,11.7-25.8,17.5-42.1,17.5H128.3c-16.4,0-30.3-5.8-41.6-17.5c-11.3-11.7-17-25.8-17-42.1V189.5c0-16.4,5.7-30.3,17-41.6c11.5-11.3,25.3-17.1,41.6-17.1H365.1z M365.1,604.2c16.4,0,30.4,5.7,42.1,17c11.7,11.3,17.5,25.3,17.5,41.6v237.7c0,16.4-5.8,30.3-17.5,41.6c-11.7,11.3-25.8,17-42.1,17H128.3c-16.4,0-30.3-5.7-41.6-17c-11.3-11.3-17-25.3-17-41.6V662.9c0-16.4,5.7-30.3,17-41.6c11.3-11.3,25.3-17,41.6-17H365.1z M839.4,604.2c16.4,0,30.3,5.7,41.6,17c11.3,11.3,17,25.3,17,41.6v237.7c0,16.4-5.7,30.3-17,41.6c-11.3,11.3-25.3,17-41.6,17H602.6c-16.4,0-30.4-5.7-42.1-17S543,916.9,543,900.6V662.9c0-16.4,5.8-30.3,17.5-41.6c11.7-11.3,25.7-17,42.1-17H839.4z M971,235c12.6,12.6,19,27.5,19,44.5c0,17-6.3,31.5-19,43.6L794.8,499.1c-12.6,12.6-27.4,19-44,19c-16.8,0-31.4-6.3-44-19L530.7,323c-12-12-18-26.5-18-43.6s6-31.9,18-44.5L706.9,58.8c12.6-12,27.4-18,44-18c16.8,0,31.4,6,44,18L971,235z"/></g>
</svg>