<?xml version="1.0" encoding="utf-8"?>
<!-- Svg Vector Icons : http://www.sfont.cn -->
<!DOCTYPE svg PUBLIC "-//W3C//DTD SVG 1.1//EN" "http://www.w3.org/Graphics/SVG/1.1/DTD/svg11.dtd">
<svg version="1.1" xmlns="http://www.w3.org/2000/svg" xmlns:xlink="http://www.w3.org/1999/xlink" x="0px" y="0px" viewBox="0 0 1000 1000" enable-background="new 0 0 1000 1000" xml:space="preserve">
<metadata> Svg Vector Icons : http://www.sfont.cn </metadata>
<g><path d="M498.1,610.2c102.1,0,282,38.9,312.1,194.5C888,726.9,935.6,618,935.6,498.4c0-242.1-195.4-437.5-437.5-437.5S60.6,257.3,60.6,498.4c0,119.6,47.6,228.5,125.4,307.2C216.2,650.1,396,610.2,498.1,610.2z M498.1,168.8c112.8,0,205.1,91.4,205.1,205.2c0,112.8-91.4,205.2-205.1,205.2C384.4,579.1,293,487.7,293,374C293,261.2,385.3,168.8,498.1,168.8z"/><path d="M500,990c-66.1,0-130.3-13-190.7-38.5c-58.4-24.7-110.8-60-155.7-105c-45-45-80.3-97.4-105-155.7C23,630.3,10,566.1,10,500s13-130.3,38.5-190.7c24.7-58.4,60-110.8,105-155.7s97.4-80.3,155.7-105C369.7,23,433.9,10,500,10s130.3,13,190.7,38.5c58.3,24.7,110.8,60,155.7,105c45,45,80.3,97.4,105,155.7C977,369.7,990,433.9,990,500s-13,130.3-38.5,190.7c-24.7,58.4-60,110.8-105,155.7c-45,45-97.4,80.3-155.7,105C630.3,977,566.1,990,500,990z M500,49.5c-60.8,0-119.8,11.9-175.3,35.4c-53.6,22.7-101.8,55.2-143.2,96.6c-41.4,41.4-73.9,89.6-96.6,143.2C61.4,380.2,49.5,439.2,49.5,500c0,60.8,11.9,119.8,35.4,175.3c22.7,53.6,55.2,101.8,96.6,143.2c41.4,41.4,89.6,73.9,143.2,96.6c55.5,23.5,114.5,35.4,175.3,35.4c60.8,0,119.8-11.9,175.3-35.4c53.6-22.7,101.8-55.2,143.2-96.6c41.4-41.4,73.9-89.6,96.6-143.2c23.5-55.5,35.4-114.5,35.4-175.3c0-60.8-11.9-119.8-35.4-175.3c-22.7-53.6-55.2-101.8-96.6-143.2c-41.4-41.4-89.6-73.9-143.2-96.6C619.8,61.4,560.8,49.5,500,49.5z"/></g>
</svg>