<?xml version="1.0" encoding="utf-8"?>
<!-- Svg Vector Icons : http://www.sfont.cn -->
<!DOCTYPE svg PUBLIC "-//W3C//DTD SVG 1.1//EN" "http://www.w3.org/Graphics/SVG/1.1/DTD/svg11.dtd">
<svg version="1.1" xmlns="http://www.w3.org/2000/svg" xmlns:xlink="http://www.w3.org/1999/xlink" x="0px" y="0px" viewBox="0 0 1000 1000" enable-background="new 0 0 1000 1000" xml:space="preserve">
<metadata> Svg Vector Icons : http://www.sfont.cn </metadata>
<g><path d="M408.3,528.9H72.8C38.1,528.9,10,557,10,591.7v335.5c0,34.7,28.1,62.8,62.8,62.8h335.5c34.7,0,62.8-28.1,62.8-62.8V591.7C471.1,557,443,528.9,408.3,528.9L408.3,528.9z M392.6,868.5c0,23.7-19.2,42.9-42.9,42.9H131.5c-23.7,0-42.9-19.2-42.9-42.9V650.4c0-23.7,19.2-42.9,42.9-42.9h218.2c23.7,0,42.9,19.2,42.9,42.9L392.6,868.5L392.6,868.5z"/><path d="M408.3,10H72.8C38.1,10,10,38.1,10,72.8v335.5c0,34.7,28.1,62.8,62.8,62.8h335.5c34.7,0,62.8-28.1,62.8-62.8V72.8C471.1,38.1,443,10,408.3,10L408.3,10z M392.6,349.6c0,23.7-19.2,42.9-42.9,42.9H131.5c-23.7,0-42.9-19.2-42.9-42.9V131.5c0-23.7,19.2-42.9,42.9-42.9h218.2c23.7,0,42.9,19.2,42.9,42.9L392.6,349.6L392.6,349.6z"/><path d="M927.2,528.9H591.7c-34.7,0-62.8,28.1-62.8,62.8v335.5c0,34.7,28.1,62.8,62.8,62.8h335.5c34.7,0,62.8-28.1,62.8-62.8V591.7C990,557,961.9,528.9,927.2,528.9L927.2,528.9z"/><path d="M927.2,10H591.7c-34.7,0-62.8,28.1-62.8,62.8v335.5c0,34.7,28.1,62.8,62.8,62.8h335.5c34.7,0,62.8-28.1,62.8-62.8V72.8C990,38.1,961.9,10,927.2,10L927.2,10z M911.5,349.6c0,23.7-19.2,42.9-42.9,42.9H650.4c-23.7,0-42.9-19.2-42.9-42.9V131.5c0-23.7,19.2-42.9,42.9-42.9h218.2c23.7,0,42.9,19.2,42.9,42.9V349.6L911.5,349.6z"/></g>
</svg>