<?xml version="1.0" encoding="utf-8"?>
<!-- Svg Vector Icons : http://www.sfont.cn -->
<!DOCTYPE svg PUBLIC "-//W3C//DTD SVG 1.1//EN" "http://www.w3.org/Graphics/SVG/1.1/DTD/svg11.dtd">
<svg version="1.1" xmlns="http://www.w3.org/2000/svg" xmlns:xlink="http://www.w3.org/1999/xlink" x="0px" y="0px" viewBox="0 0 1000 1000" enable-background="new 0 0 1000 1000" xml:space="preserve">
<metadata> Svg Vector Icons : http://www.sfont.cn </metadata>
<g><path d="M915.2,266.4H481.1L350.1,56H76c-36.4,0-66,33.6-66,74.8v738.5c0,41.3,33.5,74.8,74.8,74.8h830.4c41.3,0,74.8-33.5,74.8-74.8V341.2C990,299.9,956.5,266.4,915.2,266.4L915.2,266.4z M50.8,274.9V130.7c0-18.4,11.6-34,25.2-34h251.4L433,266.4H84.8C72.5,266.4,61,269.6,50.8,274.9L50.8,274.9z M228.1,733.8c-16.5,0-29.9-13.4-29.9-29.9c0-16.5,13.4-29.9,29.9-29.9c16.5,0,29.9,13.4,29.9,29.9C258,720.5,244.6,733.8,228.1,733.8z M228.1,540.4c-16.5,0-29.9-13.4-29.9-29.9s13.4-29.9,29.9-29.9c16.5,0,29.9,13.4,29.9,29.9S244.6,540.4,228.1,540.4z M801.7,724.3H368.4c-11.3,0-20.4-9.1-20.4-20.4s9.1-20.4,20.4-20.4h433.3c11.3,0,20.4,9.1,20.4,20.4S813,724.3,801.7,724.3z M801.7,530.9H368.4c-11.3,0-20.4-9.1-20.4-20.4c0-11.3,9.1-20.4,20.4-20.4h433.3c11.3,0,20.4,9.1,20.4,20.4C822.2,521.8,813,530.9,801.7,530.9z"/></g>
</svg>