<?xml version="1.0" encoding="utf-8"?>
<!-- Svg Vector Icons : http://www.sfont.cn -->
<!DOCTYPE svg PUBLIC "-//W3C//DTD SVG 1.1//EN" "http://www.w3.org/Graphics/SVG/1.1/DTD/svg11.dtd">
<svg version="1.1" xmlns="http://www.w3.org/2000/svg" xmlns:xlink="http://www.w3.org/1999/xlink" x="0px" y="0px" viewBox="0 0 1000 1000" enable-background="new 0 0 1000 1000" xml:space="preserve">
<metadata> Svg Vector Icons : http://www.sfont.cn </metadata>
<g><path d="M802.8,145.6c1.2,0,1.7,0.6,2.2,1.2c0.4,0.2,0.9,0.5,1.4,0.8c0.1,0,0.3,0.1,0.5,0.1C806.9,147.6,804.9,145.6,802.8,145.6L802.8,145.6L802.8,145.6z"/><path d="M780.3,139.4L780.3,139.4c-5.6-1.9-12.9-2-20.3-2.1C767.1,137.4,772.9,137.6,780.3,139.4L780.3,139.4z"/><path d="M684,250c-16.4,2.1-28.7,14.3-28.7,30.7v2c2.1,16.4,14.3,28.7,30.7,28.7c16.4-2.1,28.7-14.3,28.7-30.7v-2.1C712.7,262.3,700.4,250,684,250L684,250L684,250z"/><path d="M153.4,252.1h411.8v55.3H153.4V252.1L153.4,252.1z"/><path d="M907.1,804c-0.7,0.3-1.3,0.7-1.9,1.2C905.8,804.8,906.4,804.4,907.1,804L907.1,804z"/><path d="M960.6,34.9c-20.5-16.4-47.1-24.6-73.8-24.6H245.6c-28.7,0-55.3,8.2-73.7,24.6c-20.5,18.4-32.8,43-32.8,67.6v32.8h-20.5c-28.7,0-55.3,8.2-73.8,24.6C22.3,180.4,10,205,10,231.6v665.8c0,26.6,12.3,51.2,32.8,67.6c20.5,16.4,47.1,24.6,73.7,24.6h639.2c28.7,0,55.3-8.2,73.8-24.6c20.5-18.4,34.8-43,34.8-67.6v-32.8h18.4c28.7,0,55.3-8.2,73.7-24.6c20.5-18.5,32.8-43,32.8-67.6V104.6C993.3,78,981,53.4,960.6,34.9L960.6,34.9L960.6,34.9z M65.3,231.6c0-20.5,24.6-36.9,53.3-36.9h639.2c28.7,0,53.3,16.4,53.3,36.9v125H65.3L65.3,231.6L65.3,231.6z M882.7,809.3h-18.5V231.6c0-8.2,0-14.3-2-22.5c0-2.1,0-2.1-2-4.1c0-2.1,0-2.1-2.1-4.1c0-2,0-2-2-4.1c0-2.1-2.1-2.1-2.1-4.1c-2-2.1-2-4.1-4.1-6.1c-2.1-2.1-4.1-6.1-6.2-8.2c-2-4.1-6.1-6.1-8.2-10.2c-2-2.1-4.1-4.1-8.2-6.1l-4.1-4.1l-2-2.1c-2,0-2-2.1-4.1-2.1c-3-1.5-7.1-4.1-10.7-6.2c-0.6-0.1-1-0.4-1.4-0.8c-0.8-0.4-1.6-0.9-2.2-1.2c-2,0-2-2-4.1-2c-2.1,0-4.1-2.1-6.1-2.1h-2.1c-4.1,0-6.1-2.1-10.2-2.1l0,0l0,0l0,0h-6.1c-8.1-2-14.3-2.1-22.4-2.1h6c0.7,0,1.5,0,2.2,0c-0.7,0-1.5,0-2.2,0H192.3v-32.8c0-4.1,0-8.2,2-12.3c2-4.1,4.1-6.1,8.2-10.2c10.2-10.2,24.6-16.4,43-16.4h639.2c28.7,0,53.3,16.4,53.3,36.9v665.8c0,4.1-7,20.3-20.3,29.4C904.4,807,884.8,809.3,882.7,809.3L882.7,809.3L882.7,809.3z"/></g>
</svg>